<?xml version="1.0" encoding="UTF-8"?>
<svg fill="#2E8555" width="100pt" height="100pt" version="1.1" viewBox="0 0 100 100" xmlns="http://www.w3.org/2000/svg">
 <path d="m38.578 85.207h24.41c3.0195 0.011719 5.4727 2.4414 5.5117 5.4648h-35.438c0.039062-3.0234 2.4922-5.4531 5.5156-5.4648zm34.641-72.953c0.85156 0.21875 1.668 0.55469 2.4258 1.0078l1.2734-0.69531 1.4023-0.76562 2.0625 2.0625-0.76562 1.3984-0.69531 1.2734v0.003906c0.44922 0.75391 0.78516 1.5742 1.0039 2.4258l1.3906 0.41016 1.5312 0.44922 0.003906 2.9141-1.5312 0.44922-1.3906 0.41016h-0.003907c-0.21875 0.85156-0.55469 1.668-1.0039 2.4258l0.69531 1.2734 0.76562 1.4023-2.0625 2.0625-1.4023-0.76172-1.2734-0.69531c-0.75781 0.44922-1.5742 0.78906-2.4258 1.0039l-0.41016 1.3906-0.44922 1.5312-2.918 0.003906-0.45312-1.5312-0.41016-1.3906 0.003906-0.003906c-0.85156-0.21484-1.668-0.55469-2.4258-1.0039l-1.2734 0.69531-1.4023 0.76562-2.0625-2.0625 0.76562-1.4023 0.69531-1.2734c-0.44922-0.75781-0.78516-1.5742-1.0039-2.4258l-1.3945-0.41016-1.5312-0.45312v-2.9141l1.5312-0.44922 1.3945-0.41016h-0.003906c0.21875-0.85547 0.55859-1.6719 1.0078-2.4297l-0.69531-1.2734-0.76562-1.4023 2.0625-2.0625 1.4023 0.76562 1.2734 0.69531v0.003907c0.75781-0.44922 1.5742-0.78906 2.4258-1.0078l0.41016-1.3906 0.45312-1.5312h2.9141l0.44922 1.5312zm-2.3164 4.8008v-0.003907c-1.7109 0-3.2539 1.0312-3.9062 2.6133-0.65625 1.5781-0.29297 3.3945 0.91406 4.6055 1.2109 1.207 3.0273 1.5703 4.6094 0.91797 1.5781-0.65625 2.6094-2.1992 2.6094-3.9062 0-2.3359-1.8945-4.2305-4.2305-4.2305zm-49.008 15.996c0.375-1.4648 0.95703-2.8711 1.7305-4.1758l-1.1953-2.1914-1.3164-2.4102 3.5469-3.5469 2.4102 1.3164 2.1914 1.1914c1.3047-0.76953 2.7109-1.3555 4.1758-1.7305l0.70312-2.3945 0.77344-2.6328h5.0117l0.77344 2.6328 0.70312 2.3945c1.4688 0.375 2.875 0.96094 4.1758 1.7305l2.1953-1.1953 2.4102-1.3164 1.7734 1.7734 1.7695 1.7734-1.3164 2.4102-1.1953 2.1914c0.77344 1.3008 1.3555 2.707 1.7344 4.1758l2.3945 0.70312 2.6328 0.77344-0.003906 5.0117-2.6328 0.77344-2.3945 0.70312 0.003907 0.003906c-0.37891 1.4648-0.96094 2.8711-1.7305 4.1758l2.5078 4.5977-1.7695 1.7734-1.7734 1.7734-2.4102-1.3164-2.1953-1.1914c-1.0898 0.64453-2.2539 1.1602-3.4648 1.5312v-4.6523c5.043-2.2227 7.8398-7.668 6.707-13.062-1.1367-5.3906-5.8906-9.25-11.398-9.25-5.5117 0-10.266 3.8594-11.402 9.25-1.1328 5.3945 1.668 10.84 6.707 13.062v4.6523c-1.2109-0.37109-2.375-0.88672-3.4648-1.5312l-2.1914 1.1953-2.4102 1.3164-1.7734-1.7734-1.7734-1.7773 1.3164-2.4102 1.1953-2.1914c-0.77344-1.3008-1.3555-2.707-1.7305-4.1719l-2.3945-0.69922-2.6328-0.77344v-5.0156l2.6328-0.77344zm17.922 26.773v-15.375c3.1562-1.0273 5.3086-3.9531 5.3477-7.2695 0.042969-3.3203-2.0352-6.2969-5.1641-7.4023v6.707l-2.5781 1.875-2.5781-1.8789v-6.7031c-3.1289 1.1055-5.207 4.082-5.1641 7.4023 0.042968 3.3164 2.1953 6.2422 5.3477 7.2695v15.375c0 0.28125 0.11328 0.54688 0.30859 0.74609 0.19922 0.19531 0.46484 0.30859 0.74609 0.30859h2.6875-0.003906c0.28125 0 0.54688-0.11328 0.74609-0.30859 0.19922-0.19922 0.30859-0.46484 0.30859-0.74609zm18.855 17.504v5.5781h-15.777v-5.5781h-21.07c-1.875-0.003906-3.3906-1.5234-3.3984-3.3945v-3.1133h64.711v3.1133c-0.007813 1.8711-1.5234 3.3906-3.3984 3.3945zm1.6016-40.297v4.2266l-5.4805 1.6094c-0.26953 0.79297-0.58984 1.5703-0.96484 2.3203l2.7383 5.0156-5.9727 5.9766-5.0156-2.7383c-0.90234 0.44531-1.8359 0.82031-2.7969 1.1133l-0.67188 0.21094v5.0664h0.003906c-0.003906 1.8477-1.5039 3.3438-3.3516 3.3477h-2.6836c-1.8516-0.003907-3.3477-1.5-3.3516-3.3477v-5.0703l-0.67187-0.21094h0.003906c-0.96094-0.29297-1.8945-0.66406-2.7969-1.1094l-5.0156 2.7383-5.8203-5.8203v18.168h64.711v-28.102c-0.007813-1.8711-1.5234-3.3906-3.3984-3.3945zm-41.848 12.891 2.582-4.7305 0.003907-0.003906c-0.375-0.75-0.69922-1.5273-0.96484-2.3203l-1.6211-0.47656z" fill-rule="evenodd"/>
</svg>
