<?xml version="1.0" encoding="UTF-8"?>
<svg fill="#2E8555" width="100pt" height="100pt" version="1.1" viewBox="0 0 100 100" xmlns="http://www.w3.org/2000/svg">
  <g>
    <path d="m50 76.922c-6.9453 0-13.527-2.6367-18.539-7.418-5.3281-5.0273-8.3828-12.141-8.3828-19.504 0-14.844 12.078-26.922 26.922-26.922s26.922 12.078 26.922 26.922c0 7.3633-3.0586 14.473-8.3906 19.512-5.0195 4.7773-11.605 7.4102-18.531 7.4102zm0-50c-12.727 0-23.078 10.352-23.078 23.078 0 6.3086 2.6211 12.402 7.1836 16.719 4.3008 4.1016 9.9414 6.3594 15.895 6.3594 5.9336 0 11.578-2.2578 15.887-6.3555 4.5703-4.3203 7.1914-10.414 7.1914-16.723 0-12.727-10.352-23.078-23.078-23.078z"/>
    <path d="m49.996 53.129c-5.2266 0-9.4727-4.25-9.4727-9.4727 0-5.2266 4.25-9.4727 9.4727-9.4727 5.2266 0 9.4727 4.25 9.4727 9.4727 0.003906 5.2227-4.2461 9.4727-9.4727 9.4727zm0-15.102c-3.1055 0-5.6289 2.5234-5.6289 5.6289s2.5234 5.6289 5.6289 5.6289c3.1055 0 5.6289-2.5234 5.6289-5.6289s-2.5234-5.6289-5.6289-5.6289z"/>
    <path d="m50 76.922c-6.9453 0-13.527-2.6367-18.539-7.418-0.39453-0.37891-0.60938-0.90234-0.59375-1.4453 0.29687-10.41 8.6992-18.566 19.133-18.566s18.836 8.1562 19.137 18.566c0.015625 0.54297-0.20312 1.0742-0.59766 1.4492-5.0273 4.7812-11.613 7.4141-18.539 7.4141zm-15.242-9.6055c4.207 3.7227 9.582 5.7617 15.242 5.7617 5.6445 0 11.023-2.043 15.242-5.7617-0.65625-7.9062-7.1953-13.977-15.242-13.977s-14.586 6.0703-15.242 13.977z"/>
    <path d="m55.75 89.961c-0.43359 0-0.85938-0.14844-1.2031-0.42188-0.41797-0.33594-0.67969-0.82812-0.71484-1.3672-0.14453-2.0273-1.7891-3.5547-3.832-3.5547s-3.6875 1.5273-3.832 3.5586c-0.039063 0.53516-0.29688 1.0312-0.71484 1.3672-0.42188 0.33984-0.95703 0.47656-1.4883 0.40234-17.355-2.6094-31.297-16.551-33.906-33.906-0.078125-0.53125 0.066406-1.0703 0.40234-1.4883 0.33594-0.41797 0.82812-0.67969 1.3672-0.71484 2.0273-0.14844 3.5547-1.793 3.5547-3.8359s-1.5312-3.6875-3.5586-3.832c-0.53516-0.039063-1.0312-0.29688-1.3672-0.71484-0.33594-0.41797-0.48047-0.95703-0.40234-1.4883 2.6094-17.355 16.551-31.297 33.906-33.906 0.52734-0.074219 1.0664 0.066406 1.4883 0.40234 0.41797 0.33594 0.67969 0.82812 0.71484 1.3672 0.14844 2.0273 1.793 3.5547 3.8359 3.5547s3.6875-1.5312 3.832-3.5586c0.035157-0.53516 0.29688-1.0273 0.71484-1.3672 0.41797-0.33594 0.96094-0.47266 1.4883-0.40234 17.355 2.6094 31.297 16.551 33.906 33.906 0.078125 0.53125-0.066406 1.0703-0.40234 1.4883-0.33594 0.41797-0.82812 0.67969-1.3672 0.71484-2.0273 0.14844-3.5547 1.793-3.5547 3.8359s1.5273 3.6875 3.5586 3.832c0.53516 0.035157 1.0273 0.29688 1.3672 0.71484 0.33594 0.41797 0.48047 0.96094 0.40234 1.4883-2.6094 17.355-16.551 31.297-33.906 33.906-0.10156 0.011719-0.19531 0.019532-0.28906 0.019532zm-41.578-32.734c2.8867 14.293 14.309 25.715 28.602 28.602 1.082-2.9609 3.9375-5.0586 7.2266-5.0586s6.1445 2.1016 7.2266 5.0547c14.293-2.8867 25.715-14.305 28.602-28.602-2.9609-1.0781-5.0586-3.9336-5.0586-7.2227s2.1016-6.1445 5.0547-7.2266c-2.8828-14.293-14.305-25.715-28.602-28.602-1.0781 2.9609-3.9336 5.0586-7.2227 5.0586s-6.1445-2.1016-7.2266-5.0586c-14.293 2.8828-25.719 14.309-28.602 28.602 2.957 1.082 5.0586 3.9375 5.0586 7.2266s-2.0977 6.1445-5.0586 7.2266z"/>
    <path d="m50 19.23c-4.0156 0-7.3867-3.1328-7.668-7.1328-0.019531-0.089844-0.023437-0.33984-0.023437-0.55859 0-4.2422 3.4492-7.6914 7.6914-7.6914s7.6914 3.4492 7.6914 7.6914c0 0.22656-0.007812 0.48438-0.042968 0.71484-0.26172 3.8438-3.6289 6.9766-7.6484 6.9766zm0-11.539c-2.1211 0-3.8477 1.7266-3.8477 3.8477 0.003906 0.042969 0.011718 0.24219 0.011718 0.28906 0.14844 2.0273 1.793 3.5547 3.8359 3.5547s3.6875-1.5312 3.832-3.5586l0.015625-0.28516c0-2.1211-1.7266-3.8477-3.8477-3.8477z"/>
    <path d="m50 96.152c-4.2422 0-7.6914-3.4492-7.6914-7.6914 0-0.21875 0.003906-0.46875 0.039062-0.6875 0.26562-3.8711 3.6367-7.0039 7.6523-7.0039 4.0195 0 7.3867 3.1328 7.6641 7.1328 0.019532 0.074218 0.027344 0.33203 0.027344 0.55859 0 4.2422-3.4492 7.6914-7.6914 7.6914zm0-11.535c-2.043 0-3.6875 1.5273-3.832 3.5586l-0.015625 0.28516c0 2.1211 1.7266 3.8477 3.8477 3.8477s3.8477-1.7266 3.8477-3.8477v-0.16406c-0.16016-2.1523-1.8047-3.6797-3.8477-3.6797z"/>
    <path d="m11.539 57.691c-4.2422 0-7.6914-3.4492-7.6914-7.6914s3.4492-7.6914 7.6914-7.6914c0.21875 0 0.46875 0.003906 0.6875 0.039062 3.8711 0.26562 7.0039 3.6367 7.0039 7.6523 0 4.0195-3.1328 7.3867-7.1328 7.6641-0.074218 0.019532-0.33203 0.027344-0.55859 0.027344zm0-11.539c-2.1211 0-3.8477 1.7266-3.8477 3.8477s1.7266 3.8477 3.8477 3.8477c0.050782-0.007812 0.23828-0.011718 0.28906-0.015625 2.0273-0.14453 3.5547-1.7891 3.5547-3.832s-1.5312-3.6875-3.5586-3.832z"/>
    <path d="m88.461 57.691c-0.22656 0-0.48828-0.007812-0.71484-0.042968-3.8438-0.26172-6.9766-3.6289-6.9766-7.6484 0-4.0156 3.1328-7.3867 7.1328-7.668 0.089844-0.019531 0.33984-0.023437 0.55859-0.023437 4.2422 0 7.6914 3.4492 7.6914 7.6914s-3.4492 7.6914-7.6914 7.6914zm0-11.539c-0.042969 0.003906-0.24609 0.011718-0.28906 0.011718-2.0273 0.14844-3.5547 1.793-3.5547 3.8359s1.5273 3.6875 3.5586 3.832l0.28516 0.015625c2.1211 0 3.8477-1.7266 3.8477-3.8477s-1.7266-3.8477-3.8477-3.8477z"/>
  </g>
</svg>
