<?xml version="1.0" encoding="UTF-8"?>
<svg fill="#2E8555" width="100pt" height="100pt" version="1.1" viewBox="0 0 100 100" xmlns="http://www.w3.org/2000/svg">
  <g>
    <path d="m50 0c-9.3594 0-16.977 7.6133-16.977 16.977 0 9.3594 7.6172 16.973 16.977 16.973s16.973-7.6133 16.973-16.977c0.003906-9.3594-7.6133-16.973-16.973-16.973zm-2.6172 15.027c0-1.4414 1.1758-2.6172 2.6172-2.6172s2.6172 1.1758 2.6172 2.6172c0 1.4453-1.1758 2.6172-2.6172 2.6172s-2.6172-1.1719-2.6172-2.6172zm-1.9844 13v-0.77734c0-2.5391 2.0625-4.6016 4.6016-4.6016s4.6016 2.0664 4.6016 4.6016v0.77734c-1.418 0.59375-2.9727 0.92188-4.6016 0.92188s-3.1836-0.32812-4.6016-0.92188zm13.824-3.4219c-0.55859-1.9414-1.7109-3.6328-3.25-4.8594 1.0273-1.2969 1.6445-2.9336 1.6445-4.7148 0-4.1992-3.418-7.6172-7.6172-7.6172s-7.6172 3.418-7.6172 7.6172c0 1.7812 0.61719 3.418 1.6445 4.7148-1.5391 1.2305-2.6914 2.918-3.25 4.8594-1.7188-2.0742-2.7539-4.7305-2.7539-7.6289 0-6.6016 5.3711-11.977 11.977-11.977 6.6016 0 11.973 5.3711 11.973 11.977 0.003906 2.8945-1.0312 5.5547-2.75 7.6289z"/>
    <path d="m50 66.051c-9.3594 0-16.977 7.6133-16.977 16.977 0 9.3594 7.6133 16.973 16.977 16.973 9.3594 0 16.973-7.6133 16.973-16.973 0-9.3633-7.6133-16.977-16.973-16.977zm-2.6172 15.027c0-1.4414 1.1758-2.6172 2.6172-2.6172s2.6172 1.1758 2.6172 2.6172-1.1758 2.6172-2.6172 2.6172-2.6172-1.1719-2.6172-2.6172zm-1.9844 13v-0.77734c0-2.5391 2.0625-4.6055 4.6016-4.6055s4.6016 2.0664 4.6016 4.6055v0.77734c-1.418 0.59375-2.9727 0.92188-4.6016 0.92188s-3.1836-0.32812-4.6016-0.92188zm13.824-3.4258c-0.55859-1.9414-1.7109-3.6328-3.25-4.8594 1.0273-1.2969 1.6445-2.9336 1.6445-4.7148 0-4.1992-3.418-7.6172-7.6172-7.6172s-7.6172 3.418-7.6172 7.6172c0 1.7773 0.61719 3.4141 1.6445 4.7148-1.5391 1.2305-2.6914 2.918-3.25 4.8594-1.7188-2.0742-2.7539-4.7305-2.7539-7.6289 0-6.6055 5.3711-11.977 11.977-11.977 6.6016 0 11.973 5.3711 11.973 11.977 0 2.8984-1.0352 5.5547-2.75 7.6289z"/>
    <path d="m29.426 27.398c-0.011719-0.042969-0.035156-0.082032-0.046875-0.125-0.015625-0.042969-0.019531-0.085938-0.035156-0.125-0.007812-0.015626-0.015625-0.027344-0.019531-0.042969-0.015625-0.039063-0.035157-0.074219-0.050781-0.11328-0.03125-0.066407-0.066407-0.125-0.10156-0.1875-0.027344-0.046876-0.050781-0.09375-0.078125-0.14063-0.019531-0.03125-0.046875-0.0625-0.066406-0.09375-0.042969-0.058593-0.089844-0.10937-0.13281-0.16016-0.035156-0.042968-0.070312-0.085937-0.10938-0.125-0.023437-0.023437-0.054687-0.046875-0.078125-0.074218-0.050781-0.046876-0.10156-0.085938-0.15625-0.125-0.050781-0.039063-0.097656-0.078126-0.14844-0.11328-0.011719-0.007812-0.023438-0.019531-0.035156-0.027344-0.015626-0.011718-0.035157-0.015624-0.054688-0.027343-0.050781-0.03125-0.10547-0.058594-0.16016-0.085938-0.0625-0.03125-0.12109-0.0625-0.18359-0.089843-0.035156-0.015626-0.066406-0.027344-0.10547-0.039063-0.050781-0.019531-0.10156-0.027344-0.15234-0.042969-0.070313-0.019531-0.13672-0.039062-0.20703-0.054687-0.035156-0.007813-0.074218-0.015625-0.10938-0.019531-0.058593-0.007813-0.11328-0.007813-0.16406-0.015626-0.074219-0.003906-0.14453-0.011718-0.21875-0.011718h-0.10938c-0.054688 0.003906-0.10547 0.011718-0.16016 0.019531-0.070313 0.007813-0.14063 0.015625-0.21094 0.027344-0.039062 0.007812-0.078125 0.015625-0.11719 0.027343-0.019531 0.003907-0.039062 0.003907-0.058593 0.011719-0.042969 0.007813-0.078125 0.03125-0.12109 0.042969-0.042969 0.015625-0.085937 0.019531-0.12891 0.035156l-11.574 4.5039c-1.2852 0.5-1.9258 1.9492-1.4258 3.2344 0.38672 0.98828 1.3281 1.5938 2.332 1.5938 0.30078 0 0.60938-0.054688 0.90625-0.17188l5.4531-2.1211c-2.1758 5.2695-3.3594 11.168-3.3594 17.168 0 8.4961 2.332 16.797 6.5625 23.367 0.47656 0.74219 1.2812 1.1445 2.1055 1.1445 0.46484 0 0.93359-0.12891 1.3516-0.39844 1.1602-0.74609 1.4961-2.293 0.75-3.4531-3.7188-5.7773-5.7695-13.113-5.7695-20.66 0-5.2422 1.0117-10.379 2.8633-14.973l1.2227 4.5039c0.30469 1.1133 1.3125 1.8438 2.4102 1.8438 0.21875 0 0.4375-0.027344 0.65625-0.089844 1.332-0.36328 2.1172-1.7344 1.7578-3.0703z"/>
    <path d="m86.895 66.539c-0.5-1.2852-1.9453-1.9258-3.2344-1.4258l-5.4531 2.1211c2.1758-5.2695 3.3594-11.164 3.3594-17.164 0-8.4961-2.332-16.797-6.5625-23.371-0.74609-1.1602-2.2969-1.4961-3.4531-0.75-1.1602 0.74609-1.4961 2.293-0.74609 3.457 3.7188 5.7773 5.7695 13.117 5.7695 20.664 0 5.2422-1.0117 10.383-2.8633 14.973l-1.2266-4.5039c-0.36328-1.332-1.7383-2.1172-3.0664-1.7578-1.332 0.36328-2.1172 1.7344-1.7578 3.0664l2.9258 10.75c0.015624 0.050782 0.035156 0.097656 0.054687 0.14453 0.011719 0.035156 0.015625 0.070312 0.027344 0.10547 0.003906 0.011719 0.011719 0.019532 0.019531 0.03125 0.011719 0.027344 0.019531 0.058594 0.035156 0.089844 0.0625 0.13672 0.13281 0.26953 0.21875 0.39062 0.007813 0.011719 0.019532 0.023437 0.027344 0.035156 0.019531 0.023438 0.039062 0.046875 0.058594 0.074219 0.023437 0.03125 0.046875 0.058594 0.070312 0.085938 0.042969 0.050781 0.085938 0.10156 0.13281 0.14844 0.035156 0.035156 0.070312 0.066406 0.10938 0.097656 0.074218 0.066407 0.14844 0.12891 0.23047 0.1875 0.019532 0.015625 0.035157 0.027344 0.054688 0.039063 0.011719 0.007812 0.019531 0.015625 0.027344 0.023437 0.015625 0.011719 0.035156 0.015625 0.050781 0.023438 0.17188 0.10547 0.35156 0.1875 0.53906 0.25 0.015624 0.003906 0.027343 0.007812 0.042968 0.015625 0.027344 0.007812 0.054688 0.011718 0.082032 0.019531 0.20312 0.054687 0.41016 0.089844 0.625 0.089844h0.003906c0.18359 0 0.36719-0.027344 0.55078-0.070313 0.027344-0.007812 0.054687-0.007812 0.082031-0.015625 0.007813-0.003906 0.015625 0 0.023438-0.003906 0.039062-0.011719 0.070312-0.027344 0.10938-0.042969 0.046875-0.015625 0.09375-0.019531 0.14062-0.039062l11.574-4.5c1.2773-0.50391 1.918-1.9531 1.418-3.2383z"/>
    <path d="m33.922 50.242c0.007813 0.078124 0.011719 0.15625 0.023437 0.23047 0.015626 0.078125 0.042969 0.15234 0.066407 0.23047 0.023437 0.078125 0.042969 0.16016 0.074219 0.23438 0.027343 0.066406 0.0625 0.12891 0.097656 0.1875 0.042968 0.085938 0.085937 0.17188 0.14062 0.25391 0.007812 0.015625 0.015625 0.027344 0.023437 0.042969l4.6016 6.625c0.48438 0.69922 1.2656 1.0742 2.0547 1.0742 0.49219 0 0.98828-0.14453 1.4219-0.44531 1.1328-0.78516 1.4141-2.3477 0.62891-3.4805l-3.6133-5.1953 3.6094-5.1992c0.78516-1.1328 0.50781-2.6914-0.62891-3.4805-1.1367-0.78906-2.6914-0.50781-3.4805 0.62891l-4.6016 6.625c-0.007813 0.015625-0.015625 0.027343-0.023438 0.042969-0.054687 0.078124-0.09375 0.16406-0.13672 0.25-0.03125 0.0625-0.070313 0.125-0.097657 0.19141-0.03125 0.078125-0.050781 0.15625-0.074219 0.23438-0.023437 0.078125-0.050781 0.15234-0.066406 0.23047-0.015625 0.078124-0.019531 0.15234-0.023437 0.23047-0.007813 0.082032-0.019531 0.16406-0.019531 0.24219 0 0.085937 0.011718 0.16406 0.023437 0.24609z"/>
    <path d="m57.578 58.68c0.43359 0.30078 0.93359 0.44531 1.4258 0.44531 0.78906 0 1.5703-0.375 2.0547-1.0742l4.6016-6.625c0.011719-0.015625 0.015625-0.027343 0.023438-0.042969 0.054687-0.078124 0.09375-0.16406 0.13672-0.24609 0.03125-0.0625 0.070313-0.12891 0.097657-0.19141 0.03125-0.074218 0.050781-0.15234 0.074219-0.23047 0.023437-0.078125 0.050781-0.15625 0.066406-0.23438 0.015625-0.074219 0.019531-0.15234 0.023437-0.23047 0.007813-0.082031 0.019531-0.16406 0.019531-0.24609 0-0.082031-0.011718-0.16406-0.019531-0.24609-0.007812-0.078124-0.011719-0.15234-0.023437-0.23047-0.015625-0.078125-0.042969-0.15625-0.066406-0.23438-0.023438-0.078125-0.042969-0.15625-0.070313-0.23047-0.027344-0.066406-0.066406-0.12891-0.097656-0.19531-0.042969-0.082032-0.085938-0.16797-0.13672-0.24609-0.011719-0.015625-0.015625-0.027344-0.023438-0.042969l-4.6016-6.625c-0.78516-1.1328-2.3477-1.4141-3.4805-0.62891-1.1328 0.78906-1.4141 2.3438-0.62891 3.4805l3.6055 5.1953-3.6094 5.1992c-0.78516 1.1328-0.50391 2.6914 0.62891 3.4805z"/>
    <path d="m48.379 59.125c1.125 0 2.1445-0.76562 2.4258-1.9062l3.25-13.25c0.32812-1.3398-0.49219-2.6953-1.832-3.0234-1.3398-0.32812-2.6953 0.49219-3.0234 1.832l-3.25 13.25c-0.32812 1.3398 0.49219 2.6953 1.832 3.0234 0.19922 0.050781 0.39844 0.074219 0.59766 0.074219z"/>
  </g>
</svg>
